<svg fill="none" height="512" viewBox="0 0 36 36" width="512" xmlns="http://www.w3.org/2000/svg"><g id="36 Multicolor / Flag / mc_36_flag_finland"><g id="mc_36_flag_Finland"><path id="Oval" d="m18 36c9.9411 0 18-8.0589 18-18 0-9.94113-8.0589-18-18-18-9.94113 0-18 8.05887-18 18 0 9.9411 8.05887 18 18 18z" fill="#f0f0f0"/><path id="Path" d="m35.848 15.652h-21.76v-15.224021c-1.663.37-3.24.967001-4.696 1.760001v13.46402h-9.24c-.1.768-.152 1.552-.152 2.348s.052 1.58.152 2.348h9.24v13.462c1.455.794 3.032 1.392 4.696 1.76v-15.222h21.76c.203-1.5588.203-3.1373 0-4.696z" fill="#0052b4"/></g></g></svg>