<svg id="svg2" height="512" width="512" xmlns="http://www.w3.org/2000/svg" xmlns:xlink="http://www.w3.org/1999/xlink" xmlns:cc="http://creativecommons.org/ns#" xmlns:dc="http://purl.org/dc/elements/1.1/" xmlns:inkscape="http://www.inkscape.org/namespaces/inkscape" xmlns:rdf="http://www.w3.org/1999/02/22-rdf-syntax-ns#" xmlns:sodipodi="http://sodipodi.sourceforge.net/DTD/sodipodi-0.dtd" xmlns:svg="http://www.w3.org/2000/svg"><defs id="defs4"><path id="pt" d="m0-.5.16245985.5h-.3249197z" fill="#fff" transform="scale(.062)"/><g id="star"><use id="use8" height="650" transform="matrix(-.809 -.588 .588 -.809 0 0)" width="1235" xlink:href="#pt"/><use id="use10" height="650" transform="matrix(.309 -.951 .951 .309 0 0)" width="1235" xlink:href="#pt"/><use id="use12" height="650" width="1235" xlink:href="#pt"/><use id="use14" height="650" transform="matrix(.309 .951 -.951 .309 0 0)" width="1235" xlink:href="#pt"/><use id="use16" height="650" transform="matrix(-.809 .588 -.588 -.809 0 0)" width="1235" xlink:href="#pt"/></g><g id="s5"><use id="use19" height="650" width="1235" x="-.252" xlink:href="#star"/><use id="use21" height="650" width="1235" x="-.126" xlink:href="#star"/><use id="use23" height="650" width="1235" xlink:href="#star"/><use id="use25" height="650" width="1235" x=".126" xlink:href="#star"/><use id="use27" height="650" width="1235" x=".252" xlink:href="#star"/></g><g id="s6"><use id="use30" height="650" width="1235" x="-.063" xlink:href="#s5"/><use id="use32" height="650" width="1235" x=".315" xlink:href="#star"/></g><g id="x4"><use id="use35" height="650" width="1235" xlink:href="#s6"/><use id="use37" height="650" width="1235" xlink:href="#s5" y=".054"/><use id="use39" height="650" width="1235" xlink:href="#s6" y=".108"/><use id="use41" height="650" width="1235" xlink:href="#s5" y=".162"/></g><g id="u"><use id="use44" height="650" width="1235" xlink:href="#x4" y="-.216"/><use id="use46" height="650" width="1235" xlink:href="#x4"/><use id="use48" height="650" width="1235" xlink:href="#s6" y=".216"/></g><path id="stripe" d="m0 0h1235v50h-1235z" fill="#b22234"/><linearGradient id="linearGradient3908" gradientUnits="userSpaceOnUse" x1="-.344" x2=".344" y1="-.003" y2="-.003"><stop id="stop3904" offset="0" stop-color="#2c3c51"/><stop id="stop3906" offset="1" stop-color="#2c3c51" stop-opacity="0"/></linearGradient><clipPath id="clipPath4370"><path id="path4372" d="m-360 118a208 208 0 1 1 -416 0 208 208 0 1 1 416 0z" transform="matrix(1.168 0 0 1.168 246.888 72.213)"/></clipPath></defs><g id="g7202" clip-path="url(#clipPath4370)" transform="matrix(.988 0 0 .988 667.545 48.525)"><g id="g7181"><path id="rect6589" d="m-659.689-32.932h486v54h-486z" fill="#2980b9"/><path id="rect7099" d="m-659.689 21.068h486v54h-486z" fill="#fff"/><g id="g7105" transform="translate(0 108)"><path id="rect7107" d="m-659.689-32.932h486v54h-486z" fill="#2980b9"/><path id="rect7109" d="m-659.689 21.068h486v54h-486z" fill="#fff"/></g><g id="g7157" transform="translate(0 216)"><g id="g7159"><path id="rect7161" d="m-659.689-32.932h486v54h-486z" fill="#2980b9"/><path id="rect7163" d="m-659.689 21.068h486v54h-486z" fill="#fff"/></g><g id="g7165" transform="translate(0 108)"><path id="rect7167" d="m-659.689-32.932h486v54h-486z" fill="#2980b9"/><path id="rect7169" d="m-659.689 21.068h486v54h-486z" fill="#fff"/></g></g><path id="rect7179" d="m-659.689 399.068h486v54h-486z" fill="#2980b9"/></g><path id="rect7196" d="m-659.689-32.932h220v270h-220z" fill="#2980b9"/><g fill="#fff" stroke="#fff"><path id="rect7198" d="m-577.195-32.437h55.011v269.011h-55.011z" stroke-width=".989"/><path id="rect7200" d="m74.515 440.136h55.106v219.106h-55.106z" stroke-width=".894" transform="rotate(90)"/></g></g></svg>